<?xml version="1.0" encoding="utf-8"?>
<!-- Generator: Adobe Illustrator 21.0.0, SVG Export Plug-In . SVG Version: 6.00 Build 0)  -->
<svg version="1.1" id="Layer_1" xmlns="http://www.w3.org/2000/svg" xmlns:xlink="http://www.w3.org/1999/xlink" x="0px" y="0px"
	 viewBox="0 0 25 17" style="enable-background:new 0 0 25 17;" xml:space="preserve">
<style type="text/css">
	.st0{fill:#FFFFFF;}
</style>
<g>
	<path class="st0" d="M6.2,0h2.5C9.4,0,10,0.6,10,1.2v2.5C10,4.4,9.4,5,8.7,5H6.2C5.5,5,5,4.4,5,3.7V1.2C5,0.6,5.5,0,6.2,0z"/>
	<path class="st0" d="M7.4,7.1h1.4c0.4,0,0.7,0.3,0.7,0.7v1.4c0,0.4-0.3,0.7-0.7,0.7H7.4C7,9.9,6.7,9.6,6.7,9.2V7.8
		C6.7,7.4,7,7.1,7.4,7.1z"/>
	<path class="st0" d="M1.2,8.7h2.5C4.4,8.7,5,9.3,5,10v2.5c0,0.7-0.6,1.2-1.2,1.2H1.2c-0.7,0-1.2-0.6-1.2-1.2V10
		C0,9.3,0.6,8.7,1.2,8.7z"/>
	<rect x="13.8" y="11.2" class="st0" width="3.7" height="3.7"/>
	<rect x="7.8" y="11.9" class="st0" width="5" height="5"/>
	<rect x="11" y="9.2" class="st0" width="2.3" height="2.3"/>
	<path class="st0" d="M15,0.8L15,0.8c0.6,0,1.2,0.5,1.2,1.2S15.6,3.2,15,3.2S13.8,2.6,13.8,2S14.4,0.8,15,0.8z"/>
	<path class="st0" d="M18,3.6L18,3.6c1.9,0,3.4,1.5,3.4,3.4s-1.5,3.4-3.4,3.4S14.6,8.9,14.6,7S16.1,3.6,18,3.6z"/>
	<path class="st0" d="M23,3.8L23,3.8c0.7,0,1.2,0.5,1.2,1.2S23.7,6.2,23,6.2S21.8,5.7,21.8,5S22.3,3.8,23,3.8z"/>
</g>
</svg>
